<svg height="56" viewBox="0 0 56 56" width="56" xmlns="http://www.w3.org/2000/svg"><path d="m28.0001 18.7188c3.75 0 6.8437-3.0938 6.8437-6.8672 0-3.75-3.0937-6.8438-6.8437-6.8203-3.75.0234-6.8437 3.0703-6.8437 6.8203 0 3.7734 3.0937 6.8672 6.8437 6.8672zm17.2734 0c3.75 0 6.8436-3.0938 6.8436-6.8672 0-3.75-3.0936-6.8438-6.8436-6.8203-3.75.0234-6.8437 3.0703-6.8437 6.8203 0 3.7734 3.0937 6.8672 6.8437 6.8672zm-34.5234-.0235c3.7266 0 6.8203-3.0703 6.8203-6.8203 0-3.7266-3.0937-6.8437-6.8203-6.8437-3.7734 0-6.8672 3.1171-6.8672 6.8437 0 3.75 3.0938 6.8203 6.8672 6.8203zm34.5234-3.3281c-1.9922 0-3.4687-1.5469-3.4687-3.5156 0-1.9453 1.4765-3.5157 3.4687-3.5157 1.9452 0 3.4922 1.5704 3.4922 3.5157 0 1.9687-1.547 3.5156-3.4922 3.5156zm-34.5234-.1172c-1.9219 0-3.4219-1.5-3.4219-3.3984 0-1.875 1.5-3.4219 3.4219-3.4219 1.875 0 3.375 1.5469 3.375 3.4219 0 1.8984-1.5 3.3984-3.375 3.3984zm17.25 0c-1.9219 0-3.3985-1.5-3.3985-3.3984 0-1.875 1.4766-3.4219 3.3985-3.4219s3.375 1.5469 3.3984 3.4219c.0469 1.8984-1.4765 3.3984-3.3984 3.3984zm17.2734 19.5937c3.75 0 6.8436-3.0937 6.8436-6.8437 0-3.7266-3.0936-6.8437-6.8436-6.8203-3.75.0235-6.8437 3.0937-6.8437 6.8203 0 3.75 3.0937 6.8437 6.8437 6.8437zm-17.2734 0c3.75 0 6.8437-3.0937 6.8437-6.8437 0-3.7266-3.0937-6.8437-6.8437-6.8203-3.75.0235-6.8437 3.0937-6.8437 6.8203 0 3.75 3.0937 6.8437 6.8437 6.8437zm-17.25 0c3.7266 0 6.8203-3.0937 6.8203-6.8437 0-3.7266-3.0937-6.8437-6.8203-6.8203-3.7734.0235-6.8672 3.0937-6.8672 6.8203 0 3.75 3.0938 6.8437 6.8672 6.8437zm34.5234-3.3281c-1.9922 0-3.4687-1.5703-3.4687-3.539 0-1.9219 1.4765-3.4922 3.4687-3.4922 1.9452 0 3.4922 1.5703 3.4922 3.4922 0 1.9687-1.547 3.539-3.4922 3.539zm-17.2734 0c-1.9687 0-3.5156-1.5703-3.5156-3.539 0-1.9219 1.5469-3.4922 3.5156-3.4922 1.9688 0 3.5156 1.5703 3.5156 3.4922 0 1.9687-1.5468 3.539-3.5156 3.539zm-17.25 0c-1.9688 0-3.5156-1.5703-3.5156-3.539 0-1.9219 1.5468-3.4922 3.5156-3.4922 1.9453 0 3.4453 1.5703 3.4453 3.4922 0 1.9687-1.5 3.539-3.4453 3.539zm34.5234 19.4766c3.75 0 6.8436-3.0938 6.8436-6.8438s-3.0936-6.8437-6.8436-6.8437-6.8437 3.0937-6.8437 6.8437 3.0937 6.8438 6.8437 6.8438zm-17.2734 0c3.75 0 6.8437-3.0938 6.8437-6.8438s-3.0937-6.8437-6.8437-6.8437-6.8437 3.0937-6.8437 6.8437 3.0937 6.8438 6.8437 6.8438zm-17.25 0c3.7266 0 6.8203-3.0938 6.8203-6.8438s-3.0937-6.8437-6.8203-6.8437c-3.7734 0-6.8672 3.0937-6.8672 6.8437s3.0938 6.8438 6.8672 6.8438zm17.25-3.3281c-1.9687 0-3.5156-1.5703-3.5156-3.5391 0-1.9219 1.5469-3.4922 3.5156-3.4922 1.9688 0 3.5156 1.5703 3.5156 3.4922 0 1.9688-1.5468 3.5391-3.5156 3.5391zm17.2734 0c-1.9922 0-3.4687-1.5703-3.4687-3.5391 0-1.9219 1.4765-3.4922 3.4687-3.4922 1.9452 0 3.4922 1.5703 3.4922 3.4922 0 1.9688-1.547 3.5391-3.4922 3.5391zm-34.5234 0c-1.9688 0-3.5156-1.5703-3.5156-3.5391 0-1.9219 1.5468-3.4922 3.5156-3.4922 1.9453 0 3.4453 1.5703 3.4453 3.4922 0 1.9688-1.5 3.5391-3.4453 3.5391z"/></svg>